# MagicaVoxel @ Ephtracy

# material
mtllib rail.mtl
usemtl palette

# normals
vn -1 0 0
vn 1 0 0
vn 0 0 1
vn 0 0 -1
vn 0 -1 0
vn 0 1 0

# texcoords
vt 0.369141 0.5
vt 0.986328 0.5

# verts
v -5 0 9
v -5 0 7
v -5 0 5
v -5 0 3
v -5 0 1
v -5 0 -1
v -5 0 -3
v -5 0 -5
v -5 0 -7
v -5 0 -9
v -5 1 9
v -5 1 7
v -5 1 5
v -5 1 3
v -5 1 1
v -5 1 -1
v -5 1 -3
v -5 1 -5
v -5 1 -7
v -5 1 -9
v -4 1 10
v -4 1 9
v -4 1 7
v -4 1 5
v -4 1 3
v -4 1 1
v -4 1 -1
v -4 1 -3
v -4 1 -5
v -4 1 -7
v -4 1 -9
v -4 1 -10
v -4 2 10
v -4 2 -10
v 3 1 10
v 3 1 9
v 3 1 7
v 3 1 5
v 3 1 3
v 3 1 1
v 3 1 -1
v 3 1 -3
v 3 1 -5
v 3 1 -7
v 3 1 -9
v 3 1 -10
v 3 2 10
v 3 2 -10
v -3 1 10
v -3 1 9
v -3 1 7
v -3 1 5
v -3 1 3
v -3 1 1
v -3 1 -1
v -3 1 -3
v -3 1 -5
v -3 1 -7
v -3 1 -9
v -3 1 -10
v -3 2 10
v -3 2 -10
v 4 1 10
v 4 1 9
v 4 1 7
v 4 1 5
v 4 1 3
v 4 1 1
v 4 1 -1
v 4 1 -3
v 4 1 -5
v 4 1 -7
v 4 1 -9
v 4 1 -10
v 4 2 10
v 4 2 -10
v 5 0 9
v 5 0 7
v 5 0 5
v 5 0 3
v 5 0 1
v 5 0 -1
v 5 0 -3
v 5 0 -5
v 5 0 -7
v 5 0 -9
v 5 1 9
v 5 1 7
v 5 1 5
v 5 1 3
v 5 1 1
v 5 1 -1
v 5 1 -3
v 5 1 -5
v 5 1 -7
v 5 1 -9
v -4 1 10
v -4 2 10
v -3 1 10
v -3 2 10
v 3 1 10
v 3 2 10
v 4 1 10
v 4 2 10
v -5 0 9
v -5 1 9
v -4 1 9
v -3 1 9
v 3 1 9
v 4 1 9
v 5 0 9
v 5 1 9
v -5 0 5
v -5 1 5
v -4 1 5
v -3 1 5
v 3 1 5
v 4 1 5
v 5 0 5
v 5 1 5
v -5 0 1
v -5 1 1
v -4 1 1
v -3 1 1
v 3 1 1
v 4 1 1
v 5 0 1
v 5 1 1
v -5 0 -3
v -5 1 -3
v -4 1 -3
v -3 1 -3
v 3 1 -3
v 4 1 -3
v 5 0 -3
v 5 1 -3
v -5 0 -7
v -5 1 -7
v -4 1 -7
v -3 1 -7
v 3 1 -7
v 4 1 -7
v 5 0 -7
v 5 1 -7
v -5 0 7
v -5 1 7
v -4 1 7
v -3 1 7
v 3 1 7
v 4 1 7
v 5 0 7
v 5 1 7
v -5 0 3
v -5 1 3
v -4 1 3
v -3 1 3
v 3 1 3
v 4 1 3
v 5 0 3
v 5 1 3
v -5 0 -1
v -5 1 -1
v -4 1 -1
v -3 1 -1
v 3 1 -1
v 4 1 -1
v 5 0 -1
v 5 1 -1
v -5 0 -5
v -5 1 -5
v -4 1 -5
v -3 1 -5
v 3 1 -5
v 4 1 -5
v 5 0 -5
v 5 1 -5
v -5 0 -9
v -5 1 -9
v -4 1 -9
v -3 1 -9
v 3 1 -9
v 4 1 -9
v 5 0 -9
v 5 1 -9
v -4 1 -10
v -4 2 -10
v -3 1 -10
v -3 2 -10
v 3 1 -10
v 3 2 -10
v 4 1 -10
v 4 2 -10
v -5 0 9
v 5 0 9
v -5 0 7
v 5 0 7
v -5 0 5
v 5 0 5
v -5 0 3
v 5 0 3
v -5 0 1
v 5 0 1
v -5 0 -1
v 5 0 -1
v -5 0 -3
v 5 0 -3
v -5 0 -5
v 5 0 -5
v -5 0 -7
v 5 0 -7
v -5 0 -9
v 5 0 -9
v -4 1 10
v -3 1 10
v 3 1 10
v 4 1 10
v -4 1 9
v -3 1 9
v 3 1 9
v 4 1 9
v -4 1 7
v -3 1 7
v 3 1 7
v 4 1 7
v -4 1 5
v -3 1 5
v 3 1 5
v 4 1 5
v -4 1 3
v -3 1 3
v 3 1 3
v 4 1 3
v -4 1 1
v -3 1 1
v 3 1 1
v 4 1 1
v -4 1 -1
v -3 1 -1
v 3 1 -1
v 4 1 -1
v -4 1 -3
v -3 1 -3
v 3 1 -3
v 4 1 -3
v -4 1 -5
v -3 1 -5
v 3 1 -5
v 4 1 -5
v -4 1 -7
v -3 1 -7
v 3 1 -7
v 4 1 -7
v -4 1 -9
v -3 1 -9
v 3 1 -9
v 4 1 -9
v -4 1 -10
v -3 1 -10
v 3 1 -10
v 4 1 -10
v -5 1 9
v -4 1 9
v -3 1 9
v 3 1 9
v 4 1 9
v 5 1 9
v -5 1 7
v -4 1 7
v -3 1 7
v 3 1 7
v 4 1 7
v 5 1 7
v -5 1 5
v -4 1 5
v -3 1 5
v 3 1 5
v 4 1 5
v 5 1 5
v -5 1 3
v -4 1 3
v -3 1 3
v 3 1 3
v 4 1 3
v 5 1 3
v -5 1 1
v -4 1 1
v -3 1 1
v 3 1 1
v 4 1 1
v 5 1 1
v -5 1 -1
v -4 1 -1
v -3 1 -1
v 3 1 -1
v 4 1 -1
v 5 1 -1
v -5 1 -3
v -4 1 -3
v -3 1 -3
v 3 1 -3
v 4 1 -3
v 5 1 -3
v -5 1 -5
v -4 1 -5
v -3 1 -5
v 3 1 -5
v 4 1 -5
v 5 1 -5
v -5 1 -7
v -4 1 -7
v -3 1 -7
v 3 1 -7
v 4 1 -7
v 5 1 -7
v -5 1 -9
v -4 1 -9
v -3 1 -9
v 3 1 -9
v 4 1 -9
v 5 1 -9
v -4 2 10
v -3 2 10
v 3 2 10
v 4 2 10
v -4 2 -10
v -3 2 -10
v 3 2 -10
v 4 2 -10

# faces
f 11/1/1 2/1/1 1/1/1
f 12/1/1 2/1/1 11/1/1
f 13/1/1 4/1/1 3/1/1
f 14/1/1 4/1/1 13/1/1
f 15/1/1 6/1/1 5/1/1
f 16/1/1 6/1/1 15/1/1
f 17/1/1 8/1/1 7/1/1
f 18/1/1 8/1/1 17/1/1
f 19/1/1 10/1/1 9/1/1
f 20/1/1 10/1/1 19/1/1
f 33/2/1 22/2/1 21/2/1
f 33/2/1 32/2/1 31/2/1
f 33/2/1 31/2/1 30/2/1
f 33/2/1 30/2/1 29/2/1
f 33/2/1 29/2/1 28/2/1
f 33/2/1 28/2/1 27/2/1
f 33/2/1 27/2/1 26/2/1
f 33/2/1 26/2/1 25/2/1
f 33/2/1 25/2/1 24/2/1
f 33/2/1 24/2/1 23/2/1
f 33/2/1 23/2/1 22/2/1
f 34/2/1 32/2/1 33/2/1
f 47/2/1 36/2/1 35/2/1
f 47/2/1 46/2/1 45/2/1
f 47/2/1 45/2/1 44/2/1
f 47/2/1 44/2/1 43/2/1
f 47/2/1 43/2/1 42/2/1
f 47/2/1 42/2/1 41/2/1
f 47/2/1 41/2/1 40/2/1
f 47/2/1 40/2/1 39/2/1
f 47/2/1 39/2/1 38/2/1
f 47/2/1 38/2/1 37/2/1
f 47/2/1 37/2/1 36/2/1
f 48/2/1 46/2/1 47/2/1
f 49/2/2 50/2/2 61/2/2
f 59/2/2 60/2/2 61/2/2
f 58/2/2 59/2/2 61/2/2
f 57/2/2 58/2/2 61/2/2
f 56/2/2 57/2/2 61/2/2
f 55/2/2 56/2/2 61/2/2
f 54/2/2 55/2/2 61/2/2
f 53/2/2 54/2/2 61/2/2
f 52/2/2 53/2/2 61/2/2
f 51/2/2 52/2/2 61/2/2
f 50/2/2 51/2/2 61/2/2
f 61/2/2 60/2/2 62/2/2
f 63/2/2 64/2/2 75/2/2
f 73/2/2 74/2/2 75/2/2
f 72/2/2 73/2/2 75/2/2
f 71/2/2 72/2/2 75/2/2
f 70/2/2 71/2/2 75/2/2
f 69/2/2 70/2/2 75/2/2
f 68/2/2 69/2/2 75/2/2
f 67/2/2 68/2/2 75/2/2
f 66/2/2 67/2/2 75/2/2
f 65/2/2 66/2/2 75/2/2
f 64/2/2 65/2/2 75/2/2
f 75/2/2 74/2/2 76/2/2
f 77/1/2 78/1/2 87/1/2
f 87/1/2 78/1/2 88/1/2
f 79/1/2 80/1/2 89/1/2
f 89/1/2 80/1/2 90/1/2
f 81/1/2 82/1/2 91/1/2
f 91/1/2 82/1/2 92/1/2
f 83/1/2 84/1/2 93/1/2
f 93/1/2 84/1/2 94/1/2
f 85/1/2 86/1/2 95/1/2
f 95/1/2 86/1/2 96/1/2
f 99/2/3 98/2/3 97/2/3
f 100/2/3 98/2/3 99/2/3
f 103/2/3 102/2/3 101/2/3
f 104/2/3 102/2/3 103/2/3
f 107/1/3 106/1/3 105/1/3
f 108/1/3 107/1/3 105/1/3
f 109/1/3 108/1/3 105/1/3
f 110/1/3 109/1/3 105/1/3
f 111/1/3 110/1/3 105/1/3
f 112/1/3 110/1/3 111/1/3
f 115/1/3 114/1/3 113/1/3
f 116/1/3 115/1/3 113/1/3
f 117/1/3 116/1/3 113/1/3
f 118/1/3 117/1/3 113/1/3
f 119/1/3 118/1/3 113/1/3
f 120/1/3 118/1/3 119/1/3
f 123/1/3 122/1/3 121/1/3
f 124/1/3 123/1/3 121/1/3
f 125/1/3 124/1/3 121/1/3
f 126/1/3 125/1/3 121/1/3
f 127/1/3 126/1/3 121/1/3
f 128/1/3 126/1/3 127/1/3
f 131/1/3 130/1/3 129/1/3
f 132/1/3 131/1/3 129/1/3
f 133/1/3 132/1/3 129/1/3
f 134/1/3 133/1/3 129/1/3
f 135/1/3 134/1/3 129/1/3
f 136/1/3 134/1/3 135/1/3
f 139/1/3 138/1/3 137/1/3
f 140/1/3 139/1/3 137/1/3
f 141/1/3 140/1/3 137/1/3
f 142/1/3 141/1/3 137/1/3
f 143/1/3 142/1/3 137/1/3
f 144/1/3 142/1/3 143/1/3
f 145/1/4 146/1/4 147/1/4
f 145/1/4 147/1/4 148/1/4
f 145/1/4 148/1/4 149/1/4
f 145/1/4 149/1/4 150/1/4
f 145/1/4 150/1/4 151/1/4
f 151/1/4 150/1/4 152/1/4
f 153/1/4 154/1/4 155/1/4
f 153/1/4 155/1/4 156/1/4
f 153/1/4 156/1/4 157/1/4
f 153/1/4 157/1/4 158/1/4
f 153/1/4 158/1/4 159/1/4
f 159/1/4 158/1/4 160/1/4
f 161/1/4 162/1/4 163/1/4
f 161/1/4 163/1/4 164/1/4
f 161/1/4 164/1/4 165/1/4
f 161/1/4 165/1/4 166/1/4
f 161/1/4 166/1/4 167/1/4
f 167/1/4 166/1/4 168/1/4
f 169/1/4 170/1/4 171/1/4
f 169/1/4 171/1/4 172/1/4
f 169/1/4 172/1/4 173/1/4
f 169/1/4 173/1/4 174/1/4
f 169/1/4 174/1/4 175/1/4
f 175/1/4 174/1/4 176/1/4
f 177/1/4 178/1/4 179/1/4
f 177/1/4 179/1/4 180/1/4
f 177/1/4 180/1/4 181/1/4
f 177/1/4 181/1/4 182/1/4
f 177/1/4 182/1/4 183/1/4
f 183/1/4 182/1/4 184/1/4
f 185/2/4 186/2/4 187/2/4
f 187/2/4 186/2/4 188/2/4
f 189/2/4 190/2/4 191/2/4
f 191/2/4 190/2/4 192/2/4
f 195/1/5 194/1/5 193/1/5
f 196/1/5 194/1/5 195/1/5
f 199/1/5 198/1/5 197/1/5
f 200/1/5 198/1/5 199/1/5
f 203/1/5 202/1/5 201/1/5
f 204/1/5 202/1/5 203/1/5
f 207/1/5 206/1/5 205/1/5
f 208/1/5 206/1/5 207/1/5
f 211/1/5 210/1/5 209/1/5
f 212/1/5 210/1/5 211/1/5
f 217/2/5 214/2/5 213/2/5
f 218/2/5 214/2/5 217/2/5
f 219/2/5 216/2/5 215/2/5
f 220/2/5 216/2/5 219/2/5
f 225/2/5 222/2/5 221/2/5
f 226/2/5 222/2/5 225/2/5
f 227/2/5 224/2/5 223/2/5
f 228/2/5 224/2/5 227/2/5
f 233/2/5 230/2/5 229/2/5
f 234/2/5 230/2/5 233/2/5
f 235/2/5 232/2/5 231/2/5
f 236/2/5 232/2/5 235/2/5
f 241/2/5 238/2/5 237/2/5
f 242/2/5 238/2/5 241/2/5
f 243/2/5 240/2/5 239/2/5
f 244/2/5 240/2/5 243/2/5
f 249/2/5 246/2/5 245/2/5
f 250/2/5 246/2/5 249/2/5
f 251/2/5 248/2/5 247/2/5
f 252/2/5 248/2/5 251/2/5
f 257/2/5 254/2/5 253/2/5
f 258/2/5 254/2/5 257/2/5
f 259/2/5 256/2/5 255/2/5
f 260/2/5 256/2/5 259/2/5
f 261/1/6 262/1/6 267/1/6
f 267/1/6 262/1/6 268/1/6
f 263/1/6 264/1/6 269/1/6
f 269/1/6 264/1/6 270/1/6
f 265/1/6 266/1/6 271/1/6
f 271/1/6 266/1/6 272/1/6
f 273/1/6 274/1/6 279/1/6
f 279/1/6 274/1/6 280/1/6
f 275/1/6 276/1/6 281/1/6
f 281/1/6 276/1/6 282/1/6
f 277/1/6 278/1/6 283/1/6
f 283/1/6 278/1/6 284/1/6
f 285/1/6 286/1/6 291/1/6
f 291/1/6 286/1/6 292/1/6
f 287/1/6 288/1/6 293/1/6
f 293/1/6 288/1/6 294/1/6
f 289/1/6 290/1/6 295/1/6
f 295/1/6 290/1/6 296/1/6
f 297/1/6 298/1/6 303/1/6
f 303/1/6 298/1/6 304/1/6
f 299/1/6 300/1/6 305/1/6
f 305/1/6 300/1/6 306/1/6
f 301/1/6 302/1/6 307/1/6
f 307/1/6 302/1/6 308/1/6
f 309/1/6 310/1/6 315/1/6
f 315/1/6 310/1/6 316/1/6
f 311/1/6 312/1/6 317/1/6
f 317/1/6 312/1/6 318/1/6
f 313/1/6 314/1/6 319/1/6
f 319/1/6 314/1/6 320/1/6
f 321/2/6 322/2/6 325/2/6
f 325/2/6 322/2/6 326/2/6
f 323/2/6 324/2/6 327/2/6
f 327/2/6 324/2/6 328/2/6
